<?xml version="1.0" encoding="utf-8"?>
<!-- Generator: Adobe Illustrator 27.8.0, SVG Export Plug-In . SVG Version: 6.00 Build 0)  -->
<svg version="1.1" id="Camada_1" xmlns="http://www.w3.org/2000/svg" xmlns:xlink="http://www.w3.org/1999/xlink" x="0px" y="0px"
	 viewBox="0 0 512 512" style="enable-background:new 0 0 512 512;" xml:space="preserve">
<g transform="translate(0.000000,512.000000) scale(0.100000,-0.100000)">
	<path d="M430,4394c-209-45-385-227-420-434c-8-46-10-508-8-1570L5,885l26-67c73-186,219-314,404-353c105-22,4145-22,4250,0
		c188,40,343,178,407,363l23,67v1535v1535l-23,67c-64,185-219,323-407,363C4582,4417,530,4416,430,4394z M1645,3383
		c499-439,911-798,915-798c5,0,417,359,917,799l908,798l125-5c150-7,202-22,269-83c52-47,105-138,99-172c-3-19-2300-2072-2318-2072
		c-16,0-2315,2053-2318,2071c-5,29,33,104,78,153c73,79,146,103,321,105l97,1L1645,3383z M4020,4176c0-7-1452-1281-1460-1281
		S1100,4169,1100,4176c0,2,657,4,1460,4S4020,4178,4020,4176z M543,3326l267-238V1883V677l-162,6c-117,3-176,10-210,22
		c-65,23-141,94-175,163l-28,57l-3,1339l-2,1340l22-20C265,3572,395,3456,543,3326z M4888,2000l-3-1075l-28-57
		c-34-69-110-140-175-163c-34-12-93-19-209-22l-163-6v1206v1205l288,255l287,256l3-262C4889,3193,4889,2591,4888,2000z M1822,2187
		c400-356,732-647,738-647c8,0,1185,1040,1488,1313l22,20V1777V680H2560H1050v1097v1096l23-20C1085,2842,1422,2542,1822,2187z"/>
</g>
</svg>
