<?xml version="1.0" encoding="utf-8"?>
<!-- Generator: Adobe Illustrator 27.8.0, SVG Export Plug-In . SVG Version: 6.00 Build 0)  -->
<svg version="1.1" xmlns="http://www.w3.org/2000/svg" xmlns:xlink="http://www.w3.org/1999/xlink" x="0px" y="0px"
	 viewBox="0 0 500 500" style="enable-background:new 0 0 500 500;" xml:space="preserve">
<style type="text/css">
	.st0{display:none;}
	.st1{display:inline;fill:#EB496F;}
	.st2{fill:url(#SVGID_1_);}
	.st3{display:inline;}
	.st4{fill:#E2E4E4;}
	.st5{fill:#006891;}
	.st6{fill:#00AA80;}
	.st7{fill:#FDBB3B;}
	.st8{fill:#EB496F;}
	.st9{fill:#FFFFFF;}
	.st10{fill:#0088BB;}
	.st11{font-family:'Montserrat-ExtraBold';}
	.st12{font-size:11.0227px;}
	.st13{fill:#D6958A;}
	.st14{fill:none;stroke:#D17A80;stroke-width:1.4399;stroke-miterlimit:10;}
	.st15{fill:#ED3654;}
	.st16{fill:#C90D2C;}
	.st17{fill:#33324F;}
	.st18{fill:#D17A80;}
	.st19{fill:none;stroke:#D17A80;stroke-width:1.4839;stroke-miterlimit:10;}
	.st20{opacity:0.5;}
	.st21{fill:none;stroke:#005467;stroke-width:0.7419;stroke-miterlimit:10;}
	.st22{fill:#E8776E;}
	.st23{fill:none;stroke:#924541;stroke-width:1.3836;stroke-miterlimit:10;}
	.st24{display:inline;fill:#FDBB3B;}
	.st25{display:inline;opacity:0.5;}
	.st26{fill:#924541;}
	.st27{fill:none;stroke:#EC9E05;stroke-width:1.1065;stroke-miterlimit:10;}
	.st28{opacity:0.5;fill:#924541;}
	.st29{fill:#972A45;}
	.st30{fill:#DC3C5E;}
	.st31{display:inline;fill:none;stroke:#EC9E05;stroke-width:1.1065;stroke-miterlimit:10;}
	.st32{display:inline;fill:#FFFFFF;}
	.st33{fill:#613F8C;}
	.st34{fill:#CDCDCD;}
	.st35{fill:#3F3E58;}
	.st36{fill:#00B0D1;}
	.st37{fill:none;stroke:#00B0D1;stroke-width:2;stroke-miterlimit:10;}
	.st38{font-size:22.6535px;}
	.st39{font-size:20.809px;}
	.st40{font-size:20.5403px;}
	.st41{font-size:19.9072px;}
</style>
<g id="BACKGROUND" class="st0">
	<rect x="-0.2" y="0.4" class="st1" width="499.9" height="499.9"/>
</g>
<g id="Camada_3">
	<linearGradient id="SVGID_1_" gradientUnits="userSpaceOnUse" x1="379.0075" y1="112.3122" x2="95.9496" y2="404.4424">
		<stop  offset="0" style="stop-color:#ED3654"/>
		<stop  offset="0.523" style="stop-color:#B73896"/>
		<stop  offset="1" style="stop-color:#823AD6"/>
	</linearGradient>
	<path class="st2" d="M51.5,194.8c4.3-23.3,18.7-43.4,39.3-55.1c76.5-43.5,266.8-134.1,305.7,14.2c49,186.6,18.6,264.9-139.6,255.5
		C106.5,400.5,11.4,413.5,51.5,194.8z"/>
</g>
<g id="OBJECTS">
	<g class="st0">
		<g class="st3">
			<g>
				<g>
					<path class="st4" d="M243.4,81.3v93.5c0,4-3.2,7.2-7.2,7.2H83.8c-4,0-7.2-3.2-7.2-7.2V81.3c0-4,3.2-7.2,7.2-7.2h152.4
						C240.1,74.1,243.4,77.3,243.4,81.3z"/>
				</g>
				<g>
					<path class="st5" d="M243.4,81.3v7.4H76.6v-7.4c0-4,3.2-7.2,7.2-7.2h152.4C240.1,74.1,243.4,77.3,243.4,81.3z"/>
					<g>
						<path class="st6" d="M109.5,81.5c0,2.3-1.8,4.1-4.1,4.1c-2.3,0-4.1-1.8-4.1-4.1c0-2.3,1.8-4.1,4.1-4.1
							C107.7,77.3,109.5,79.2,109.5,81.5z"/>
						<path class="st7" d="M98.8,81.5c0,2.3-1.8,4.1-4.1,4.1c-2.3,0-4.1-1.8-4.1-4.1c0-2.3,1.8-4.1,4.1-4.1
							C97,77.3,98.8,79.2,98.8,81.5z"/>
						<path class="st8" d="M87.8,81.5c0,2.3-1.8,4.1-4.1,4.1c-2.3,0-4.1-1.8-4.1-4.1c0-2.3,1.8-4.1,4.1-4.1
							C86,77.3,87.8,79.2,87.8,81.5z"/>
					</g>
				</g>
			</g>
			<g>
				<rect x="137.7" y="110.6" class="st7" width="48.6" height="5.4"/>
				<polyline class="st9" points="229.8,110.6 192.6,110.6 192.6,116 229.8,116 				"/>
				<polyline class="st5" points="93.7,125.5 177.1,125.5 177.1,120.1 93.7,120.1 				"/>
				<polyline class="st5" points="116.4,103.2 199.7,103.2 199.7,97.8 116.4,97.8 				"/>
				<rect x="183.6" y="120.1" class="st7" width="20.3" height="5.4"/>
				<polyline class="st9" points="229.8,120.1 210.2,120.1 210.2,125.5 229.8,125.5 				"/>
				<polyline class="st9" points="229.8,97.8 205.9,97.8 205.9,103.2 229.8,103.2 				"/>
				<polyline class="st5" points="93.7,134.9 137.7,134.9 137.7,129.6 93.7,129.6 				"/>
				<rect x="144.2" y="129.6" class="st7" width="59.6" height="5.4"/>
				<polyline class="st7" points="110.7,144.4 137.7,144.4 137.7,139 110.7,139 				"/>
				<polyline class="st9" points="229.8,139 144,139 144,144.4 229.8,144.4 				"/>
				<polyline class="st5" points="93.7,153.9 131.2,153.9 131.2,148.5 93.7,148.5 				"/>
				<rect x="137.7" y="148.5" class="st7" width="66.2" height="5.4"/>
				<polyline class="st9" points="229.8,148.5 210.2,148.5 210.2,153.9 229.8,153.9 				"/>
				<polyline class="st5" points="93.7,163.4 156.4,163.4 156.4,158 93.7,158 				"/>
				<rect x="162.9" y="158" class="st7" width="23.4" height="5.4"/>
				<polyline class="st9" points="229.8,158 192.6,158 192.6,163.4 229.8,163.4 				"/>
				<rect x="121.1" y="167.5" class="st7" width="82.7" height="5.4"/>
				<polyline class="st9" points="229.8,167.5 210.2,167.5 210.2,172.9 229.8,172.9 				"/>
			</g>
			<text transform="matrix(1 0 0 1 93.7222 105.2907)" class="st10 st11 st12">&lt;/&gt;</text>
		</g>
	</g>
	<g>
		<g>
			<g>
				<g>
					<path class="st13" d="M169,260.7c0,0.3,0.1,0.6,0.1,0.9c0,0,0,0,0,0c0,0,0,0,0,0c0.2,4.1-2,7.1-9.1,5.9
						c-0.8-0.2-1.6-0.6-2.3-1.2l0,0c0,0-4.1-4-6.4-8.6c-1.4-2.8-1.1-4.2-1.1-4.3c-0.5-0.7-0.9-1.2-1.3-1.5c-0.6-0.4-1.3-0.6-1.3-0.6
						s-0.2,0.8,0.4,2.2c0.7,1.3-1.5,3.4-3-0.1c-1.3-2.9-0.9-4.7,0.6-5.3c-0.4,0-0.8,0-1.1,0c-5.2,0.3-5-4,0.4-4c0.6,0,1.2,0,1.8,0.1
						c0-0.1-0.1-0.2-0.1-0.3c-0.3-0.1-0.7-0.1-1-0.1c-5.3-0.4-3.9-4.7,1.2-3.8c1.4,0.2,2.9,0.7,4.3,1.2c-0.5-0.4-1.1-0.8-1.7-1.1
						c-3.8-2-2.3-5.6,1.4-3.9c3.8,1.7,9.1,6,11.8,9.5C165.3,249,168.4,255.8,169,260.7z"/>
					<path class="st14" d="M152.3,242.1c3.9,3.4,4.8,5.5,4.8,5.5"/>
					<path class="st14" d="M147.1,249.5c0,0,1.4,0.3,2.9,2.1"/>
				</g>
				<g>
					<path class="st14" d="M153.3,255.5c-1.2-2.3-1.4-4.5-2.4-6c-1.4-2-4.7-5.1-4.2-6.2c1-2.3,3.2-0.9,5.6,1.1
						c2.4,2,6.7,4.7,8.7,3.8"/>
				</g>
			</g>
			<g>
				<path class="st13" d="M252.6,251L252.6,251c-0.7,2.2-1.6,4.5-2.8,7.1c-2.7,6.1-6.7,13.2-12.5,20.9c-2.3,3-4.8,6.1-7.6,9.3
					c-0.1,0.1-0.3,0.3-0.4,0.4c-1.3,1.4-2.7,2.9-4.1,4.4c-1.2,1.3-2.5,2.3-4,3L209,281.7c0,0,0.8-1.4,2.1-3.9
					c0.4-0.7,0.8-1.5,1.3-2.4c0.6-1.1,1.2-2.2,1.9-3.5c0.2-0.3,0.4-0.7,0.5-1c0.4-0.8,0.9-1.7,1.4-2.5c7.1-13,17.4-31.5,21.5-36.5
					c0,0,0,0,0,0c0.4-0.4,0.9-0.8,1.3-1.1l6.9,2.7l3.7,1.4c0.3,0.5,0.7,1.1,1,1.6C251.4,239.5,252.4,244.4,252.6,251z"/>
				<path class="st13" d="M228.3,288.8c-0.9,1.7-2,3.1-3.1,4.2c-1.2,1.3-2.5,2.3-4,3c-20.9,11.1-61.8-28.8-61.8-28.8l6.5-7.5
					l46.3,15.6l2.1,0.7L228.3,288.8z"/>
				<path class="st15" d="M334.9,326.4l-89.8,1.4l-6.3-91.5c-0.6-4.2,0.2-6.6,4.2-8.2c3.3-1.3,8.4-3.3,14.6-4.7
					c1.3-0.3,2.7-0.6,4.1-0.8c3.5-0.6,7.3-1,11.3-1l12.4-0.9c0,0,4.4,0.1,10.3,0.6c2.4,0.2,5,0.5,7.7,0.9c2.7,0.4,5.5,0.9,8.2,1.5
					c5.7,1.3,9.4,6.9,8.5,12.7L334.9,326.4z"/>
				<path class="st16" d="M303.4,222.3c-47,27.6-46.7,7.4-45.7,1.1c1.3-0.3,2.7-0.6,4.1-0.8c3.5-0.6,7.3-1,11.3-1l12.4-0.9
					c0,0,4.4,0.1,10.3,0.6C298.1,221.7,300.7,221.9,303.4,222.3z"/>
				<path class="st13" d="M295.7,221.4c-40.8,24.9-34,1.2-34,1.2c3.5-0.6,7.3-1,11.3-1l12.4-0.9
					C285.5,220.8,289.8,220.9,295.7,221.4z"/>
				<g>
					<g>
						<path class="st17" d="M243.6,187c0,0-7.3,0.1-6.6-6s7.4-6.2,7.4-6.2L243.6,187z"/>
						<path class="st17" d="M291.3,168.8c-2-1.9-4.7-2.7-7.3-2.4c-1.2-9.4-15.7-10.1-23.1-9.1c0-0.1,0.1-0.3,0.1-0.4
							c0-0.1,0.1-0.2,0.1-0.2c0.6-2.5,0.9-5.9-0.7-8.2c-1.4-2-4.1-2.7-6.4-2.4c-4.9,0.7-6.8,5-7.4,9.5c-2.5-2.8-8-3.1-10.3,0.4
							c-3.2,4.8,0.2,9.2,3,13c-2.7,0.4-7.6,2-6.5,5.4c1.3,3.9,8.1,2.3,10.9,1.6c0.1,0,0.2-0.1,0.3-0.1c0.5,0.2,1.3-0.3,1-1
							c-1.1-2.7,10.5-3.5,12.1-3.6c4-0.3,8.1-0.7,12.1-0.8c3.9-0.1,7.6,0.4,10,3.9c2.4,3.5,4.1,7.6,6.1,11.3c0,0,0,0,0,0.1
							c0.2,2.8,0,5.6-0.8,8.3c-0.2,0.7,0.7,1.1,1.2,0.8c6.4-3.7,9-9.7,8.5-17.2C294,174.4,293.8,171.1,291.3,168.8z"/>
					</g>
					<g>
						<g>
							<path class="st13" d="M286.9,223.9c-15.5,4.1-24.6,7.7-22.4,1.6l0.5-2.4l0.1-0.6l1.3-6.6l1.3-6.4l0.6-3.1l16.6-1.5l0.9,8.3
								l0.4,3.4L286.9,223.9z"/>
						</g>
						<path class="st18" d="M286.2,216.7c-2.1,0.8-17.2,6.7-21.2,6.4l0.1-0.6l1.3-6.6l18.6-9.5L286.2,216.7z"/>
					</g>
					<g>
						<g>
							<path class="st13" d="M243,187.4c0,0.6,0.1,1.3,0.1,1.9c0,0.4,0.1,0.8,0.1,1.2c0.3,2.6,0.7,4.9,1.2,7.1
								c0.6,2.6,1.4,4.9,2.3,6.9c0.7,1.6,1.5,3,2.4,4.3c5.7,8,13.9,8.9,19.4,8.4c6.3-0.6,16-3.7,19.1-16.5c1-3.8,1.3-8.5,0.8-14.3
								c0-0.6-0.1-1.2-0.2-1.8c-0.1-0.6-0.1-1.3-0.2-1.9c-1.9-14.1-8.4-24.8-24.9-23.2C246.4,161,242.2,173,243,187.4z"/>
						</g>
					</g>
					<g>
						<path class="st17" d="M277.6,174.8c0,0-1.9,16.7,3.5,20.3c0,0,5.9,4,7.2-11.8L277.6,174.8z"/>
						<path class="st17" d="M279.5,181.3c0,0-9.7,1.9-10.5-6.2c0,0-5.8,5.8-12.1,0.2c0,0-1.3,5.1-9.2,4c0,0,1.8,6.8-4.7,7.6
							l-1.8-3.6l0.9-8l2.3-5.4l5.6-7l5.9-2.8l7.5-1.3h6.3l7.5,1.7l5.5,5.1l4.5,6l1.3,11.6l-1.2,1L279.5,181.3z"/>
					</g>
					<g>
						<g>
							<path class="st13" d="M281.6,190.7c0,1.5,0.3,3,0.7,4.3c0.2,0.6,0.3,1.2,0.5,1.8c0,0,0,0,0,0c0,0.1,0.1,0.2,0.1,0.3
								c0,0.1,0.1,0.3,0.2,0.4c0.1,0.2,0.2,0.3,0.4,0.4c1.3,1.6,3.7,2,5.8,1.2c0.7-0.2,1.3-0.6,1.9-1.1c1.9-1.6,3.2-3.6,3.6-5.7
								c0.3-1.8,0.1-3.7-0.8-5.5c-0.3-0.7-0.7-1.3-1.2-1.8c-0.6-0.7-1.3-1.1-2-1.4c-0.4-0.2-0.8-0.3-1.3-0.4
								c-1.7-0.2-3.5,0.3-5.3,1.5c-0.6,0.4-1.1,0.9-1.5,1.5C281.8,187.5,281.5,189.1,281.6,190.7z"/>
						</g>
						<path class="st19" d="M286,195.9c0,0-3.2-10.3,5-7.7"/>
						<line class="st19" x1="285.5" y1="192.7" x2="289" y2="191.1"/>
					</g>
					<g>
						<g>
							<g>
								<path class="st19" d="M261,202.2l-8.2,0.8c6.6-1.1,4.8-11.2,4.8-11.2"/>
								<g>
									<g class="st20">
										<path class="st18" d="M268.6,209.9c0.9,1.3-4.8,3-5.4,1.6C262.5,210.2,267.6,208.5,268.6,209.9z"/>
									</g>
									<path class="st19" d="M271.2,201.8c-1.9,4.5-7.2,6.1-12.4,5.6"/>
								</g>
							</g>
							<g>
								<g>
									<g>
										<g>
											<g>
												<path class="st17" d="M248,192.5c0.2,1.5,1.1,2.7,2.2,2.6s1.8-1.4,1.6-3c-0.2-1.5-1.1-2.7-2.2-2.6
													C248.6,189.7,247.9,191,248,192.5z"/>
											</g>
										</g>
									</g>
									<g>
										<g>
											<g>
												<path class="st17" d="M265.8,190.7c0.2,1.5,1.1,2.7,2.2,2.6c1-0.1,1.8-1.4,1.6-3c-0.2-1.5-1.1-2.7-2.2-2.6
													C266.3,187.9,265.6,189.2,265.8,190.7z"/>
											</g>
										</g>
									</g>
								</g>
								<g>
									<path class="st17" d="M264.8,187.3c5.5,0.3,8.6-1.2,3.9-1.9C263.9,184.7,261.9,187.1,264.8,187.3z"/>
									<path class="st17" d="M251.4,186.1c-4.9,2.6-8.4,2.5-4.3-0.1C251.2,183.4,254,184.8,251.4,186.1z"/>
								</g>
							</g>
						</g>
						<g class="st0">
							<g class="st3">
								<path class="st9" d="M272.8,187.8c-0.8-1.3-2-2.4-3.4-3.1c-0.2-0.1-0.3-0.2-0.5-0.2c-0.8-0.3-1.7-0.5-2.6-0.6
									c-0.2,0-0.3,0-0.5,0c-1.1,0-2.1,0.2-3.1,0.6c-1.6,0.7-3,1.8-3.9,3.3c-0.6,1-1,2.1-1.2,3.3h-4.5c-0.1-1.2-0.5-2.3-1.2-3.3
									c-0.9-1.5-2.3-2.6-3.9-3.3c-0.9-0.4-2-0.6-3-0.6c-1.1,0-2.1,0.2-3,0.6c-1.4,0.6-2.6,1.5-3.5,2.7c-0.1,0.2-0.3,0.4-0.4,0.6
									c-0.7,1.1-1.1,2.4-1.2,3.9c0,0.1,0,0.3,0,0.4c0,0.5,0,0.9,0.1,1.4c0.2,0.9,0.4,1.7,0.9,2.5v0c0.1,0.3,0.3,0.5,0.5,0.8
									c1.1,1.6,2.7,2.7,4.7,3.2c0.6,0.1,1.2,0.2,1.8,0.2c0.1,0,0.2,0,0.2,0c2.8,0,5.3-1.4,6.7-3.5c0.5-0.8,1-1.6,1.2-2.5
									c0.1-0.2,0.1-0.5,0.2-0.7c0.1-0.4,0.1-0.7,0.1-1.1h4.4c0,0.4,0,0.8,0.1,1.1c0,0.3,0.1,0.5,0.2,0.7c0.2,0.9,0.6,1.8,1.2,2.5
									c1.5,2.1,3.9,3.5,6.7,3.5c0.1,0,0.3,0,0.4,0c1.1,0,2.2-0.3,3.1-0.8h0c1.1-0.5,2-1.3,2.8-2.2c0.1-0.2,0.3-0.3,0.4-0.5
									c0.7-1,1.1-2.1,1.4-3.3c0.1-0.5,0.1-0.9,0.1-1.4C274,190.5,273.6,189.1,272.8,187.8z M252,194.3c-0.3,0.9-0.8,1.8-1.4,2.5
									c-1.3,1.5-3.3,2.5-5.5,2.5H245c-2.1,0-4-1-5.3-2.5c-0.8-0.9-1.4-2-1.6-3.3c-0.1-0.4-0.1-0.9-0.1-1.4c0-1.6,0.5-3.1,1.4-4.3
									c1.3-1.8,3.4-2.9,5.8-2.9c2.4,0,4.5,1.1,5.8,2.9c0.9,1.2,1.4,2.7,1.4,4.3c0,0.5,0,0.9-0.1,1.4
									C252.2,193.8,252.1,194,252,194.3z M271.3,196.8c-1.3,1.5-3.1,2.4-5.1,2.5c-0.1,0-0.2,0-0.3,0c-2.2,0-4.1-1-5.5-2.5
									c-0.6-0.7-1.1-1.6-1.4-2.5c-0.1-0.2-0.1-0.5-0.2-0.7c-0.1-0.4-0.1-0.9-0.1-1.4c0-1.6,0.5-3.1,1.4-4.3
									c1.3-1.8,3.4-2.9,5.8-2.9s4.5,1.1,5.8,2.9c0.9,1.2,1.4,2.7,1.4,4.3c0,0.5,0,0.9-0.1,1.4
									C272.7,194.8,272.1,195.9,271.3,196.8z"/>
							</g>
						</g>
					</g>
				</g>
				<g>
					<path class="st13" d="M326.2,234.9L326.2,234.9c2.7,7.2,5.4,17.6,6,31.3c0.2,3.9,0.2,8.1,0,12.6c-0.2,3.5-0.5,7.1-0.9,11
						l-0.2,0l-19.2-3.4c0,0-0.3-1.6-0.9-4.3c-0.3-1.8-0.8-4-1.3-6.5c-0.3-1.2-0.5-2.6-0.8-4c-3.2-16.3-7.6-40.6-6.5-43.5l10.9-3.6
						c0.6,0.2,1.2,0.4,1.8,0.6C317.9,226.8,321.9,230,326.2,234.9z"/>
					<path class="st13" d="M312.8,281.5l-48.9,15l-0.9,9.9c0,0,72.5,10.9,68.5-22.8L312.8,281.5z"/>
					<g>
						<path class="st13" d="M248.6,304.8c0,0-3.7,0.1-7,1.3c-3.4,1.3-3.4-2.3-0.4-3.5c0,0-1.8,0.2-3.9,1.2c-2.1,1-3.2-1.3-2.1-2.6
							c0,0-1.5,0.5-2.2-0.8c-0.7-1.4,0.8-2.8,1.4-3.2c0,0-2.7-2.4,3.1-4.9c5.8-2.6,13.6-4,23.3,0.9c6.7,3.3,7.1,8.6,5.5,11.3
							C263.5,309.5,254.6,310.3,248.6,304.8z"/>
						<path class="st14" d="M241.2,302.6c5.1-1.9,7.4-1.7,7.4-1.7"/>
						<path class="st14" d="M235.2,301.3c7.8-3.8,11.7-3.5,11.7-3.5"/>
						<path class="st14" d="M234.4,297.3c4.9-3.1,11.5-3.4,11.5-3.4"/>
					</g>
				</g>
				<path class="st15" d="M339.6,279.1l-7.4-0.3l-27.1-0.7l0-1.3l-6.7-50.7l5.5-2.5c0,0,4.1-0.7,9.6,0.9c0.6,0.2,1.2,0.4,1.8,0.6
					C325.6,228.8,339.3,240.5,339.6,279.1z"/>
				<path class="st15" d="M241.8,228.8c0,0-18.4,9.6-29.5,41l22.9,21.4l12.6-15.7L241.8,228.8z"/>
				<line class="st14" x1="306.8" y1="283.4" x2="313.5" y2="281.3"/>
				<line class="st14" x1="206.3" y1="273.4" x2="215.6" y2="276.6"/>
				<g>
					<path class="st21" d="M242.1,282.7c0,0-1.3-22.1,0-32"/>
					<line class="st21" x1="241.8" y1="258.1" x2="239.2" y2="253"/>
				</g>
				<g>
					<polyline class="st21" points="310.4,278.2 306.8,278.1 301,245.5 					"/>
					<line class="st21" x1="301.9" y1="250.5" x2="298.9" y2="247.6"/>
				</g>
			</g>
		</g>
		<g class="st0">
			<g class="st3">
				<path class="st17" d="M301.5,199c0,0-14.1,4.7-10.1,17.7c0,0-10.8-1.3-13.8,13c0,0-16.5-0.6-15.6,16.3
					c0.9,16.9,19.7,8.2,19.7,8.2s4.8,15.2,17.7,7.7c0,0,8,10.9,16.9,0L301.5,199z"/>
				<path class="st17" d="M341.1,204.3c0,0,11.8,9,3.7,20c0,0,10.7,2.3,8.8,16.8c0,0,15.8,4.8,9.4,20.5c-6.4,15.7-21.3,1.3-21.3,1.3
					s-9.5,12.8-19.2,1.5c0,0-11.1,7.7-16-5.5L341.1,204.3z"/>
				<path class="st17" d="M347.3,206c-0.2,0.9-0.3,1.8-0.6,2.7c-0.5,2.2-1.2,4.6-2.1,7.2c0,0.1,0,0.1-0.1,0.2c-0.3,1-0.7,2-1.1,3
					c-0.5,1.2-1.6,2-2.8,2.1l-32.7,1.2c-2.5,0.1-4-2.8-4.9-5.2c-3.4-9.5-10-31.7,13.2-39.3c4.1-1.3,8.4-1.6,12.6-0.7
					C337.5,178.8,351.1,184.9,347.3,206z"/>
			</g>
			<g class="st3">
				<path class="st22" d="M338.9,302.5c-0.3,1.7-0.5,3.4-0.4,4.9c0.1,1.6,0.4,3.1,1,4.5c8.1,20.5,61.3,16.8,61.3,16.8l-0.1-9.3
					l-42.4-16.8l-1.9-0.8L338.9,302.5z"/>
				<g>
					<path class="st22" d="M357.2,307.6l-15.9,7.8c-0.9-1.2-1.7-2.5-2.3-4.1c-0.7-1.8-1.3-3.5-1.9-5.3c-0.1-0.2-0.1-0.4-0.2-0.5
						c-1.2-3.8-2.3-7.3-3.1-10.7c-2.1-8.8-2.9-16.4-2.9-22.6c0-2.6,0.1-4.9,0.2-7.1l0,0c2.6-5.6,5.4-9.4,7.3-11.7
						c0.5-0.4,1-0.7,1.5-1l0.5,0l3.2,0.1l5.2,0.2c0.6,0.8,1.3,1.6,2,2.6c0.3,0.5,0.7,1,1,1.5c1.5,7.8,3.1,24.5,4.2,36.6
						c0.1,0.9,0.1,1.8,0.2,2.7c0,0.4,0.1,0.7,0.1,1.1c0,0.3,0.1,0.7,0.1,1c0.1,1,0.2,1.8,0.2,2.7c0.1,0.9,0.2,1.7,0.2,2.5
						C357.1,306.1,357.2,307.6,357.2,307.6z"/>
					<line class="st23" x1="354.8" y1="301.3" x2="360.1" y2="303.3"/>
				</g>
				<g>
					<g>
						<path class="st22" d="M397.3,318.1c-0.2,0.2-0.4,0.4-0.6,0.6c0,0,0,0,0,0c0,0,0,0,0,0c-2.6,2.8-2.9,6.3,2.9,9.7
							c0.7,0.4,1.5,0.5,2.4,0.5l0,0c0,0,5.3-0.4,9.8-2.2c2.7-1.1,3.3-2.3,3.4-2.4c0.8-0.2,1.4-0.3,1.8-0.3c0.7,0,1.3,0.4,1.3,0.4
							s-0.3,0.7-1.6,1.3c-1.3,0.5-1,3.3,2.2,1.8c2.7-1.3,3.5-2.8,2.8-4.2c0.3,0.2,0.5,0.4,0.8,0.7c3.5,3.3,5.9,0.2,2.1-3.1
							c-0.4-0.4-0.9-0.7-1.3-1.1c0.1,0,0.2-0.1,0.3-0.2c0.3,0.2,0.5,0.3,0.8,0.5c4,2.9,5.6-1,1.4-3.4c-1.1-0.7-2.4-1.3-3.8-1.8
							c0.6,0,1.2,0.1,1.8,0.2c3.9,0.8,5.1-2.6,1.3-3.6s-10.1-1.2-14.2-0.3C406.9,312,400.6,315,397.3,318.1z"/>
						<path class="st23" d="M420.4,314.9c-4.8,0.1-6.7,1-6.7,1"/>
						<path class="st23" d="M419.6,323.4c0,0-1.2-0.7-3.3-0.3"/>
					</g>
					<g>
						<path class="st23" d="M411.5,323.9c2.3-0.9,3.7-2.3,5.3-2.8c2.2-0.6,6.4-0.7,6.8-1.9c0.7-2.2-1.8-2.6-4.7-2.6
							c-2.9,0-7.6-0.7-8.4-2.5"/>
					</g>
				</g>
			</g>
			<path class="st24" d="M352.2,252.7c0,0.3,0,0.6,0,0.8l-3.1,45.9l-2.7,39.4l-83.7-1.4l13.8-83.8c-0.9-5.4,2.6-10.6,7.9-11.8
				c2.5-0.6,5.1-1,7.7-1.4c0.6-0.1,1.2-0.2,1.8-0.3c1.3-0.2,2.5-0.3,3.7-0.4c0.5-0.1,1.1-0.1,1.6-0.2c0.4,0,0.7-0.1,1.1-0.1
				c4.9-0.4,8.5-0.5,8.5-0.5l11.5,0.8c2.3,0,4.5,0.1,6.6,0.4c0.2,0,0.3,0,0.5,0.1c0.1,0,0.2,0,0.3,0c0.3,0,0.6,0.1,0.8,0.1
				c0.8,0.1,1.6,0.2,2.3,0.4c0.7,0.1,1.4,0.3,2.1,0.4l0,0c0.6,0.1,1.1,0.2,1.7,0.4c1.9,0.4,3.7,0.9,5.4,1.5c0.8,0.2,1.3,0.4,1.7,0.5
				c0,0,0,0,0.1,0c0.3,0.1,0.5,0.1,0.6,0.2c0,0,0.1,0,0.1,0c0.1,0,0.2,0.1,0.5,0.2c0,0,0.1,0,0.1,0
				C345,244.8,348.5,246.9,352.2,252.7z"/>
			<g class="st3">
				<g>
					<path class="st9" d="M324.9,250.3l2.4-9.9c0.1,0,0.1,0,0.1-0.1c0.1,0,0.2,0,0.3,0c0.3,0,0.6,0.1,0.8,0.1
						c0.8,0.1,1.6,0.2,2.3,0.4c0.7,0.1,1.4,0.3,2.1,0.4l0,0c0.6,0.1,1.1,0.2,1.7,0.4C346,255.8,324.9,250.3,324.9,250.3z"/>
					<g>
						<path class="st9" d="M325.6,249.4c0,0-0.2,0.5-0.7,1.2c-2.8,4.1-13.2,15.8-30.9-10.4c1.3-0.2,2.5-0.3,3.7-0.4
							c0.5-0.1,1.1-0.1,1.6-0.2c0.4,0,0.7-0.1,1.1-0.1l24.6,9.6L325.6,249.4z"/>
					</g>
				</g>
				<path class="st22" d="M297.6,239.8c0.5-0.1,1.1-0.1,1.6-0.2c5.5-0.5,9.6-0.6,9.6-0.6l11.5,0.8c2.3,0,4.5,0.1,6.6,0.4
					c0.5,0.1,1.1,0.2,1.6,0.3C328.5,240.5,334.8,262.2,297.6,239.8z"/>
			</g>
			<g class="st25">
				<path class="st26" d="M321,230.1c-0.8,1.2,4.5,2.8,5.1,1.5C326.7,230.4,321.9,228.8,321,230.1z"/>
			</g>
			<g class="st3">
				<path class="st7" d="M363.8,291.5c0,0-3.3,2.1-7.2,4.3c-2.5,1.4-5.3,2.8-7.6,3.7c-2,0.8-3.7,1.1-4.5,0.8l-2.5-50.8l-0.3-6
					c0,0,0,0,0,0c0,0,0,0,0.1,0c0.1,0,0.3,0.1,0.6,0.2c0,0,0.1,0,0.1,0c0.2,0.1,0.3,0.1,0.5,0.2c0,0,0.1,0,0.1,0
					c1.6,0.7,4.2,2.3,7.2,6.1c0.6,0.8,1.2,1.7,1.9,2.7c0.3,0.5,0.6,1,0.9,1.6C357.3,261.2,361.4,272.7,363.8,291.5z"/>
			</g>
			<g class="st3">
				<path class="st27" d="M345.4,265.4c0,0,6.4,18.4,3.6,34.1"/>
				<line class="st27" x1="346.8" y1="269.8" x2="348.3" y2="266.5"/>
			</g>
			<g class="st3">
				<path class="st22" d="M277.3,245.9c0,0,0.1-0.1,0.1-0.1c0.3-0.3,0.7-0.5,1-0.7c0.6-0.2,1.1-0.4,1.7-0.6l10.2,3.4
					c1,2.7-3.1,25.4-6,40.6c-0.3,1.3-0.5,2.5-0.7,3.7c-0.4,2.1-0.8,4-1.1,5.6c0,0.2-0.1,0.4-0.1,0.5c-0.5,2.5-0.8,4-0.8,4l-17.9,3.2
					l-0.1,0c-0.3-2.3-0.5-4.6-0.6-6.7c-0.1-1.2-0.2-2.3-0.2-3.5c-0.2-4.2-0.2-8.1,0-11.7c0.5-11.5,2.6-20.4,4.8-26.9L277.3,245.9z"
					/>
				<path class="st22" d="M281.2,297.9l43.4,19.7l-0.4,9.3c0,0-68.3,1.5-60.6-29.1L281.2,297.9z"/>
				<g>
					<path class="st22" d="M337.9,327c0,0,3.4,0.5,6.3,2.1c3,1.6,3.4-1.7,0.8-3.2c0,0,1.6,0.4,3.5,1.6c1.9,1.2,3.1-0.8,2.2-2.1
						c0,0,1.3,0.7,2.1-0.5c0.8-1.2-0.4-2.7-0.9-3.1c0,0,2.8-1.9-2.3-4.9c-5.1-3-12.1-5.3-21.7-1.9c-6.6,2.3-7.6,7.1-6.5,9.8
						C323.6,329.6,331.7,331.4,337.9,327z"/>
					<path class="st23" d="M345,325.9c-4.5-2.3-6.7-2.4-6.7-2.4"/>
					<path class="st23" d="M350.7,325.3c-6.7-4.5-10.4-4.7-10.4-4.7"/>
					<path class="st23" d="M351.9,321.7c-4.1-3.4-10.2-4.5-10.2-4.5"/>
				</g>
				<line class="st23" x1="284.4" y1="299.3" x2="279.2" y2="297"/>
			</g>
			<path class="st24" d="M283.7,242.1c0,0-24.3,6.6-30,53.4c0,0,21.8,2.1,32.5-1.4l7.6-47L283.7,242.1z"/>
			<g class="st3">
				<polyline class="st27" points="282.9,294.9 286.3,294.1 288.2,266.7 				"/>
				<line class="st27" x1="287.8" y1="272.3" x2="290.7" y2="269.1"/>
			</g>
			<g class="st3">
				<g>
					<g>
						<path class="st22" d="M303.9,242.8c14.5,3.8,23,7.2,20.9,1.4l-0.4-2.2l-0.1-0.6l-1.2-6.2l-1.2-5.9l-0.6-2.9l-15.5-1.4
							l-0.8,7.8l-0.3,3.2L303.9,242.8z"/>
					</g>
					<path class="st28" d="M304.6,236.1c1.9,0.8,16.1,6.3,19.8,5.9l-0.1-0.6l-1.2-6.2l-17.4-8.8L304.6,236.1z"/>
				</g>
				<g>
					<g>
						<path class="st22" d="M344.8,208.8c0,0.6-0.1,1.2-0.1,1.8c0,0.4-0.1,0.7-0.1,1.1c-0.3,2.4-0.6,4.6-1.1,6.6
							c-0.6,2.4-1.3,4.6-2.1,6.4c-0.7,1.5-1.4,2.8-2.3,4c-5.3,7.5-13,8.3-18.1,7.8c-5.9-0.5-14.9-3.4-17.8-15.4
							c-0.9-3.6-1.2-8-0.8-13.3c0-0.6,0.1-1.1,0.2-1.7c0.1-0.6,0.1-1.2,0.2-1.8c1.8-13.1,7.8-23.1,23.3-21.6
							C341.6,184.1,345.6,195.3,344.8,208.8z"/>
					</g>
				</g>
				<path class="st23" d="M328.1,222.6l7.6,0.7c-6.2-1-4.5-10.4-4.5-10.4"/>
				<g>
					<g>
						<g>
							<g>
								<path class="st17" d="M340.2,213.6c-0.1,1.4-1.1,2.5-2,2.4c-1-0.1-1.7-1.3-1.5-2.8c0.1-1.4,1.1-2.5,2-2.4
									C339.6,210.9,340.3,212.1,340.2,213.6z"/>
							</g>
						</g>
					</g>
					<g>
						<g>
							<g>
								<path class="st17" d="M323.6,211.9c-0.1,1.4-1.1,2.5-2,2.4c-1-0.1-1.7-1.3-1.5-2.8c0.1-1.4,1.1-2.5,2-2.4
									C323.1,209.2,323.8,210.5,323.6,211.9z"/>
							</g>
						</g>
					</g>
				</g>
				<g>
					<g>
						<g>
							<g>
								<path class="st17" d="M336.8,205.4c-1.2,1.7,4.7,3.7,5.7,2.1C343.4,205.9,338.1,203.7,336.8,205.4z"/>
							</g>
						</g>
					</g>
					<g>
						<g>
							<g>
								<path class="st17" d="M323.6,203.3c0.9,1.9-5.3,2.8-6,1C317,202.5,322.7,201.4,323.6,203.3z"/>
							</g>
						</g>
					</g>
				</g>
				<g>
					<path class="st29" d="M321.1,223.7c0,1,0.3,2,0.9,2.9c0.8,1.2,2,2.1,3.5,2.5c1.4,0.3,2.7,0.2,3.9-0.4c1-0.5,1.9-1.3,2.5-2.3
						L321.1,223.7z"/>
					<path class="st30" d="M322,226.6c0.8,1.2,2,2.1,3.5,2.5c1.4,0.3,2.7,0.2,3.9-0.4c-0.4-1.2-1.7-2.3-3.4-2.7
						C324.5,225.6,323,225.9,322,226.6z"/>
				</g>
				<path class="st17" d="M347.3,206c-0.2,0.9-0.3,1.8-0.6,2.7c-0.5,2.2-1.2,4.6-2.1,7.2c0,0.1,0,0.1-0.1,0.2
					c-2.8-4.5-0.8-15.2-0.8-15.2c-8.6-0.9-14.2-7.6-14.2-7.6c-6.1,2.9-15.3,1.9-15.3,1.9c-1.8,9.2-5.7,13.7-7.7,15.4
					c-0.5,0.4-1.2,0.1-1.2-0.6l0-3l-3.8-2.1l2.1-8.2l2.5-7.8l11-7l17,1l5.8,5.2l6.4,7.7L347.3,206z"/>
				<g>
					<g>
						<path class="st22" d="M307.8,207.7c-0.3-0.5-0.8-1-1.4-1.4c-1.7-1.1-3.4-1.6-4.9-1.4c-0.4,0.1-0.8,0.2-1.2,0.3
							c-0.7,0.3-1.3,0.7-1.8,1.3c-0.4,0.5-0.8,1-1.1,1.6c-0.8,1.7-1.1,3.5-0.7,5.2c0.4,2,1.5,3.9,3.3,5.3c0.5,0.4,1.1,0.8,1.7,1
							c2,0.7,4.2,0.4,5.4-1.1c0.1-0.1,0.3-0.2,0.4-0.4c0.1-0.1,0.1-0.2,0.2-0.3c0-0.1,0-0.2,0.1-0.2c0,0,0,0,0,0
							c0.2-0.5,0.3-1.1,0.5-1.7c0.3-1.3,0.6-2.7,0.6-4C308.9,210.3,308.7,208.9,307.8,207.7z"/>
					</g>
					<path class="st23" d="M304.7,216.7c0,0,2.9-9.6-4.7-7.1"/>
					<line class="st23" x1="305.2" y1="213.7" x2="301.9" y2="212.2"/>
				</g>
				<g>
					<path class="st9" d="M315.1,191.5l-2.2,0.5c-0.2,0.1-0.4,0.3-0.3,0.6l1.9,5.3c0.1,0.2,0.3,0.3,0.5,0.3l0.6-0.1
						c0.2,0,0.4-0.2,0.4-0.4l-0.4-5.8C315.6,191.6,315.3,191.4,315.1,191.5z"/>
					<path class="st9" d="M346.5,198.2l-1.9-1.1c-0.2-0.1-0.5,0-0.6,0.2l-2.3,5.2c-0.1,0.2,0,0.4,0.1,0.5l0.5,0.4
						c0.2,0.1,0.4,0.1,0.6-0.1l3.7-4.4C346.8,198.6,346.7,198.3,346.5,198.2z"/>
				</g>
			</g>
			<path class="st31" d="M349.1,299.4"/>
			<g class="st3">
				<g>
					<path class="st27" d="M349.1,299.4"/>
					<path class="st27" d="M345.4,265.4"/>
					<path class="st27" d="M346.8,269.8"/>
				</g>
			</g>
			<g class="st3">
				<g>
					<path class="st9" d="M325.7,250.8c-0.1-0.4-0.4-0.5-0.7-0.4c-0.2-0.1-0.5-0.2-0.7,0.1c-2.6,3.1-4.6,6.9-5,10.9
						c-0.3,2.4,0.2,5.8,2.8,6.9c2.4,1,4.1-1.5,4.8-3.5C328.2,260.5,326.4,255.1,325.7,250.8z M321.3,266.2c-1.8-1.9-0.9-5.7-0.2-7.9
						c0.8-2.5,2.1-4.7,3.7-6.7c0.4,2.6,0.8,5.1,1.2,7.7c0.2,1.2,0.3,2.5,0.2,3.7C325.9,264.7,324.3,269.4,321.3,266.2z"/>
					<path class="st9" d="M329.6,264.3c1.3,1.6,3.9,3.2,5.7,1.4c2-1.9,1.2-5.3,0-7.4c-1.9-3.6-5.2-6.4-8.7-8.3
						c-0.3-0.2-0.6,0-0.7,0.2c-0.3,0.1-0.6,0.3-0.5,0.7C326.4,255.1,326.7,260.8,329.6,264.3z M329.6,262.4
						c-0.6-1.1-0.9-2.3-1.2-3.5c-0.6-2.5-1.2-5-1.8-7.6c2.2,1.3,4.2,2.8,5.9,4.8c1.5,1.8,3.7,5,2.7,7.4
						C333.7,267.6,330.4,263.8,329.6,262.4z"/>
				</g>
				<path class="st9" d="M327.9,258c0-0.7-1.1-0.7-1.1,0c0.6,9.3,0.4,18.6-0.5,27.9c-0.1,0.7,1,0.7,1.1,0
					C328.4,276.6,328.5,267.3,327.9,258z"/>
				<path class="st9" d="M326.6,259c-0.2-0.7,0.8-1.1,1-0.4c2.6,8.9,5.9,17.6,9.9,26c0.3,0.6-0.7,1-1,0.4
					C332.5,276.7,329.2,268,326.6,259z"/>
			</g>
		</g>
	</g>
	<g class="st0">
		<rect x="245.7" y="319.8" class="st32" width="3.7" height="8"/>
		<rect x="245.7" y="334.1" class="st32" width="3.7" height="8"/>
		
			<rect x="253.4" y="326.8" transform="matrix(6.123234e-17 -1 1 6.123234e-17 -75.552 586.0748)" class="st32" width="3.7" height="8"/>
		
			<rect x="238.3" y="326.8" transform="matrix(6.123234e-17 -1 1 6.123234e-17 -90.6747 570.952)" class="st32" width="3.7" height="8"/>
	</g>
	<g>
		<ellipse class="st33" cx="244.6" cy="347.6" rx="142.2" ry="24.3"/>
		<g>
			<g>
				<path class="st4" d="M128,340v1.8c0,2.3,1.8,4.2,4.1,4.3l93.2,5c2.5,0.1,5-0.3,7.4-1.2l33-12.6c1.7-0.6,2.8-2.3,2.8-4.1v-4.8
					L128,340z"/>
				<g>
					<polygon class="st34" points="229.2,343.5 268.5,328.5 156.2,325.2 128,340 					"/>
					<g>
						<polygon class="st35" points="249.1,333.8 243.5,335.9 242.6,336.3 237,338.3 236.1,338.7 236.1,338.7 228.8,341.4 
							227.3,338.4 227.2,338.2 227.1,338 227,337.8 224.7,333 238.7,333.5 238.7,333.5 239.7,333.5 239.7,333.5 						"/>
						<g>
							<g>
								<polygon class="st34" points="243.5,335.9 242.6,336.3 233.1,336 232.1,335.9 227.3,335.8 227.3,335.4 233,335.6 
									234.1,335.6 								"/>
							</g>
							<g>
								<polygon class="st34" points="237,338.3 236.1,338.7 236.1,338.7 227.3,338.4 227.2,338.2 227,338.2 227,338 227.1,338 
									227.5,338 								"/>
							</g>
							<g>
								<polygon class="st34" points="239.7,333.5 234.1,335.6 234.1,335.6 233.1,336 233.1,336 227.5,338 227.2,338.2 227,338.2 
									227,338 226.9,337.9 227,337.8 232.1,335.9 233,335.6 238.7,333.5 238.7,333.5 								"/>
							</g>
						</g>
					</g>
				</g>
			</g>
			<g>
				<path class="st4" d="M229.2,344L128,340.6l-8.6-61.3c-0.9-6.6,3.6-11.7,10.1-11.5l77.7,2.6c6.5,0.2,12.5,5.7,13.4,12.3
					L229.2,344z"/>
				<circle class="st15" cx="170.5" cy="313.2" r="7.3"/>
			</g>
		</g>
		<g class="st0">
			<g class="st3">
				<g>
					<g>
						<polygon class="st36" points="463.4,338 344.5,338 354.4,258.1 473.2,258.1 						"/>
						<polygon class="st10" points="468.3,338 349.5,338 359.3,258.1 478.2,258.1 						"/>
					</g>
					<g>
						<polygon class="st10" points="394.6,356.7 419,350.2 421.6,357.5 						"/>
						<path class="st36" d="M402.1,306.4h19.3l12.5,41.3c2,6.5-2.9,13.1-9.7,13.1h-7L402.1,306.4z"/>
						<path class="st5" d="M405.5,306.4h19.3l13.3,44.2c1.5,5-2.2,10.1-7.5,10.1h-10.1L405.5,306.4z"/>
						<rect x="394.6" y="356.7" class="st5" width="27" height="4"/>
					</g>
				</g>
				
					<ellipse transform="matrix(0.2306 -0.9731 0.9731 0.2306 36.8143 625.3724)" class="st36" cx="413.8" cy="289.4" rx="8.4" ry="8.4"/>
			</g>
			<g class="st3">
				<g>
					<g>
						<rect x="305" y="342.9" class="st36" width="11.1" height="4.4"/>
						<rect x="320.2" y="342.9" class="st36" width="11.1" height="4.4"/>
						<rect x="335.3" y="342.9" class="st36" width="11.1" height="4.4"/>
						<rect x="350.5" y="342.9" class="st36" width="11.1" height="4.4"/>
						<rect x="365.6" y="342.9" class="st36" width="11.1" height="4.4"/>
						<rect x="380.7" y="342.9" class="st36" width="11.1" height="4.4"/>
						<rect x="395.9" y="342.9" class="st36" width="11.1" height="4.4"/>
					</g>
					<rect x="302.6" y="345.7" class="st5" width="106.6" height="6.1"/>
				</g>
				<g>
					<path class="st10" d="M296.4,351.7H258c-0.9,0-1.6-1-1.2-1.8c2.6-6.2,13.1-24.5,40.5-0.5C298.2,350.2,297.6,351.7,296.4,351.7z
						"/>
					<line class="st37" x1="297.2" y1="349.4" x2="283.7" y2="340.1"/>
				</g>
			</g>
		</g>
	</g>
	<g>
		<g>
			<g>
				<rect x="161.2" y="119.2" class="st9" width="3.7" height="8"/>
				<rect x="161.2" y="133.5" class="st9" width="3.7" height="8"/>
				
					<rect x="168.9" y="126.2" transform="matrix(6.123234e-17 -1 1 6.123234e-17 40.5881 300.9761)" class="st9" width="3.7" height="8"/>
				
					<rect x="153.8" y="126.2" transform="matrix(6.123234e-17 -1 1 6.123234e-17 25.4653 285.8534)" class="st9" width="3.7" height="8"/>
			</g>
			<g>
				<rect x="184.7" y="360.8" class="st9" width="3.7" height="8"/>
				<rect x="184.7" y="375.1" class="st9" width="3.7" height="8"/>
				
					<rect x="192.4" y="367.8" transform="matrix(6.123234e-17 -1 1 6.123234e-17 -177.557 566.0875)" class="st9" width="3.7" height="8"/>
				
					<rect x="177.3" y="367.8" transform="matrix(6.123234e-17 -1 1 6.123234e-17 -192.6797 550.9648)" class="st9" width="3.7" height="8"/>
			</g>
			<g>
				<rect x="354.7" y="207.4" class="st9" width="3.7" height="8"/>
				<rect x="354.7" y="221.8" class="st9" width="3.7" height="8"/>
				
					<rect x="362.4" y="214.5" transform="matrix(6.123234e-17 -1 1 6.123234e-17 145.8166 582.7651)" class="st9" width="3.7" height="8"/>
				
					<rect x="347.3" y="214.5" transform="matrix(6.123234e-17 -1 1 6.123234e-17 130.6938 567.6423)" class="st9" width="3.7" height="8"/>
			</g>
			<g class="st0">
				<rect x="199.8" y="134.7" class="st32" width="3.7" height="8"/>
				<rect x="199.8" y="149" class="st32" width="3.7" height="8"/>
				
					<rect x="207.5" y="141.8" transform="matrix(6.123234e-17 -1 1 6.123234e-17 63.6225 355.1535)" class="st32" width="3.7" height="8"/>
				
					<rect x="192.4" y="141.8" transform="matrix(6.123234e-17 -1 1 6.123234e-17 48.4997 340.0308)" class="st32" width="3.7" height="8"/>
			</g>
			<g class="st0">
				<rect x="460.7" y="353.3" class="st32" width="3.7" height="8"/>
				<rect x="460.7" y="367.6" class="st32" width="3.7" height="8"/>
				
					<rect x="468.4" y="360.3" transform="matrix(6.123234e-17 -1 1 6.123234e-17 105.9209 834.5894)" class="st32" width="3.7" height="8"/>
				
					<rect x="453.3" y="360.3" transform="matrix(6.123234e-17 -1 1 6.123234e-17 90.7981 819.4666)" class="st32" width="3.7" height="8"/>
			</g>
			<g class="st0">
				<rect x="85.2" y="270.4" class="st32" width="3.7" height="8"/>
				<rect x="85.2" y="284.7" class="st32" width="3.7" height="8"/>
				
					<rect x="93" y="277.4" transform="matrix(6.123234e-17 -1 1 6.123234e-17 -186.6086 376.2451)" class="st32" width="3.7" height="8"/>
				
					<rect x="77.8" y="277.4" transform="matrix(6.123234e-17 -1 1 6.123234e-17 -201.7314 361.1223)" class="st32" width="3.7" height="8"/>
			</g>
			<g class="st0">
				<rect x="120" y="227" class="st32" width="3.7" height="8"/>
				<rect x="120" y="241.3" class="st32" width="3.7" height="8"/>
				
					<rect x="127.7" y="234" transform="matrix(6.123234e-17 -1 1 6.123234e-17 -108.4758 367.5541)" class="st32" width="3.7" height="8"/>
				
					<rect x="112.6" y="234" transform="matrix(6.123234e-17 -1 1 6.123234e-17 -123.5986 352.4313)" class="st32" width="3.7" height="8"/>
			</g>
		</g>
		<g>
			<g>
				<g>
					<g>
						<g>
							<path class="st4" d="M183.3,156.4v57.7c0,2.5-2,4.4-4.4,4.4H84.7c-2.5,0-4.4-2-4.4-4.4v-57.7c0-2.5,2-4.4,4.4-4.4h94.1
								C181.4,152,183.3,153.9,183.3,156.4z"/>
						</g>
						<g>
							<path class="st5" d="M183.3,156.4v4.6h-103v-4.6c0-2.5,2-4.4,4.4-4.4h94.1C181.4,152,183.3,153.9,183.3,156.4z"/>
							<g>
								<path class="st6" d="M100.7,156.5c0,1.4-1.1,2.5-2.5,2.5c-1.4,0-2.5-1.1-2.5-2.5c0-1.4,1.1-2.5,2.5-2.5
									C99.5,153.9,100.7,155.1,100.7,156.5z"/>
								<path class="st7" d="M94,156.5c0,1.4-1.1,2.5-2.5,2.5c-1.4,0-2.5-1.1-2.5-2.5c0-1.4,1.1-2.5,2.5-2.5
									C92.9,153.9,94,155.1,94,156.5z"/>
								<path class="st8" d="M87.3,156.5c0,1.4-1.1,2.5-2.5,2.5c-1.4,0-2.5-1.1-2.5-2.5c0-1.4,1.1-2.5,2.5-2.5
									C86.1,153.9,87.3,155.1,87.3,156.5z"/>
							</g>
						</g>
					</g>
					<text transform="matrix(1 0 0 1 84.7207 195.5556)" class="st15 st11 st38">ReactJs</text>
				</g>
				<g>
					<g>
						<g>
							<path class="st4" d="M403.4,306.1v44.8c0,1.9-1.5,3.4-3.4,3.4h-73c-1.9,0-3.4-1.5-3.4-3.4v-44.8c0-1.9,1.5-3.4,3.4-3.4h73
								C401.9,302.7,403.4,304.2,403.4,306.1z"/>
						</g>
						<g>
							<path class="st5" d="M403.4,306.1v3.6h-79.9v-3.6c0-1.9,1.5-3.4,3.4-3.4h73C401.9,302.7,403.4,304.2,403.4,306.1z"/>
							<g>
								<path class="st6" d="M339.3,306.2c0,1.1-0.9,2-2,2c-1.1,0-2-0.9-2-2c0-1.1,0.9-2,2-2C338.4,304.2,339.3,305.1,339.3,306.2z"
									/>
								<path class="st7" d="M334.2,306.2c0,1.1-0.9,2-2,2c-1.1,0-2-0.9-2-2c0-1.1,0.9-2,2-2C333.3,304.2,334.2,305.1,334.2,306.2z"
									/>
								<path class="st8" d="M328.9,306.2c0,1.1-0.9,2-2,2c-1.1,0-2-0.9-2-2c0-1.1,0.9-2,2-2C328,304.2,328.9,305.1,328.9,306.2z"/>
							</g>
						</g>
					</g>
					<text transform="matrix(1 0 0 1 330.1435 338.2795)" class="st15 st11 st38">HTML</text>
				</g>
			</g>
			<g>
				<g>
					<path class="st15" d="M137.6,384.1H91.3c-3.7,0-6.7-3-6.7-6.7v-46.3c0-3.7,3-6.7,6.7-6.7h46.3c3.7,0,6.7,3,6.7,6.7v46.3
						C144.2,381.2,141.2,384.1,137.6,384.1z"/>
					<g>
						<path class="st9" d="M106.9,352.1l-8.3,2.8l8.3,2.8v4.7l-14-5.1v-4.9l14-5.1V352.1z"/>
						<path class="st9" d="M116.3,341.5h5.5l-9,25.8h-5.5L116.3,341.5z"/>
						<path class="st9" d="M135.9,352.5v4.9l-14,5.1v-4.7l8.3-2.8l-8.3-2.8v-4.7L135.9,352.5z"/>
					</g>
				</g>
				<g class="st0">
					<g class="st3">
						<path class="st10" d="M452.5,200.7h-38.3c-3,0-5.5-2.5-5.5-5.5V157c0-3,2.5-5.5,5.5-5.5h38.3c3,0,5.5,2.5,5.5,5.5v38.3
							C458,198.3,455.5,200.7,452.5,200.7z"/>
					</g>
					<g class="st3">
						<path class="st9" d="M438.2,190.9c0,2.6-2.1,4.8-4.7,4.8c-2.6,0-4.8-2.1-4.8-4.7c0-2.6,2.1-4.8,4.7-4.8
							C436,186.2,438.1,188.3,438.2,190.9z"/>
						<path class="st9" d="M447.1,168.4c-8.1-6.1-19.4-6-27.4,0.2c-1.3,1-3,1.2-4.1,0.2l0,0c-1-1-0.7-3,0.9-4.2
							c9.8-7.7,23.7-7.8,33.7-0.3c1.6,1.2,2,3.2,1,4.2l0,0C450.1,169.5,448.3,169.3,447.1,168.4z"/>
						<path class="st9" d="M442.5,176c-5.5-3.7-12.8-3.6-18.2,0.2c-1.3,0.9-3,1.1-4.1,0.1l0,0c-1-1-0.6-3.1,1.1-4.3
							c7.2-5,16.8-5.1,24-0.2c1.8,1.2,2.3,3.3,1.2,4.3l0,0C445.6,177,443.8,176.8,442.5,176z"/>
						<path class="st9" d="M437.6,183.7c-2.7-1.3-5.9-1.3-8.5,0.1c-1.3,0.7-3.1,0.9-4.2-0.1l0,0c-1.1-0.9-0.5-3.3,1.8-4.5
							c4.1-2.1,9-2.2,13.2-0.1c2.3,1.1,2.9,3.5,1.9,4.5l0,0C440.7,184.5,438.9,184.3,437.6,183.7z"/>
					</g>
				</g>
				<g class="st0">
					<g class="st3">
						<g>
							<path class="st10" d="M140,394.3H98.6c-3.3,0-6-2.7-6-6v-41.4c0-3.3,2.7-6,6-6H140c3.3,0,6,2.7,6,6v41.4
								C146,391.6,143.3,394.3,140,394.3z"/>
						</g>
					</g>
					<text transform="matrix(1 0 0 1 97.3186 375.6563)" class="st32 st11 st39">CSS</text>
				</g>
			</g>
			<g>
				<g>
					<g>
						<g>
							<path class="st9" d="M281.1,169.4h79.6c4.6,0,8.4-3.8,8.4-8.4v-18.2c0-4.6-3.8-8.4-8.4-8.4h-79.6c-4.6,0-8.4,3.8-8.4,8.4V161
								C272.7,165.6,276.5,169.4,281.1,169.4z"/>
							<polygon class="st9" points="272.7,161.1 272.7,183 283.7,168.5 							"/>
						</g>
					</g>
					<text transform="matrix(1 0 0 1 282.0586 156.9014)" class="st15 st11 st40">phyton</text>
				</g>
				<g class="st0">
					<g class="st3">
						<g>
							<path class="st9" d="M287.7,394h-79.6c-4.6,0-8.4-3.8-8.4-8.4v-18.2c0-4.6,3.8-8.4,8.4-8.4h79.6c4.6,0,8.4,3.8,8.4,8.4v18.2
								C296.1,390.2,292.4,394,287.7,394z"/>
							<polygon class="st9" points="296.1,385.7 296.1,407.6 285.1,393.1 							"/>
						</g>
					</g>
					<text transform="matrix(1 0 0 1 209.062 382.109)" class="st24 st11 st41">&lt;code&gt;</text>
				</g>
			</g>
		</g>
	</g>
</g>
</svg>
